<svg aria-hidden="true" style="position: absolute; width: 0; height: 0; overflow: hidden;" version="1.1" xmlns="http://www.w3.org/2000/svg" xmlns:xlink="http://www.w3.org/1999/xlink">
<defs>
<symbol id="icon-angle-right" viewBox="0 0 32 32">
<path stroke-linejoin="miter" stroke-linecap="butt" stroke-miterlimit="10" stroke-width="4.5714" d="M8.504 2.286l13.714 13.711-13.714 13.718"></path>
</symbol>
<symbol id="icon-service1" viewBox="0 0 32 32">
<path d="M28.499 16.36c0-0.733-0.063-1.464-0.189-2.187l-1.040 0.182c0.774 4.436-1.087 8.92-4.775 11.505l-0.85-1.388c-0.288-0.465-0.313-1.047-0.067-1.535l0.24-0.48c0.089-0.179 0.272-0.292 0.472-0.291h0.744c0.648 0.002 1.232-0.393 1.47-0.995l0.714-1.786c0.075-0.187 0.114-0.387 0.113-0.588v-1.161c0.001-0.28-0.11-0.549-0.309-0.747l-0.633-0.633c-0.321-0.322-0.812-0.401-1.219-0.198l-1.299 0.65c-0.148 0.074-0.323 0.074-0.472 0l-2.111-1.056c-0.178-0.089-0.291-0.272-0.29-0.471v-1.459c0-0.583-0.473-1.056-1.055-1.056-0.291 0-0.528-0.236-0.528-0.528v-0.528c0-0.166 0.078-0.322 0.211-0.422l1.689-1.267-0.633-0.844-1.689 1.267c-0.398 0.3-0.632 0.769-0.633 1.267v0.528c0 0.874 0.709 1.583 1.583 1.583v1.459c-0.002 0.6 0.337 1.149 0.875 1.416l2.111 1.055c0.446 0.222 0.97 0.222 1.416 0l1.299-0.649 0.633 0.633v1.161c0 0.067-0.013 0.133-0.038 0.196l-0.715 1.786c-0.079 0.201-0.274 0.333-0.49 0.332h-0.744c-0.6-0.002-1.149 0.337-1.416 0.875l-0.24 0.48c-0.41 0.814-0.369 1.783 0.11 2.559l0.86 1.404c-3.251 1.872-7.208 2.050-10.615 0.48l0.648-0.432c0.086-0.058 0.187-0.089 0.291-0.090h1.354c0.42 0.001 0.824-0.166 1.12-0.464l1.493-1.493c0.298-0.296 0.465-0.7 0.464-1.12v-2.437c0-0.286-0.078-0.567-0.224-0.812l-1.127-1.885c-0.288-0.471-0.8-0.759-1.353-0.76h-1.481c-0.53-0.001-1.025 0.264-1.319 0.705l-0.583 0.878h-1.301c-0.583 0-1.056 0.473-1.056 1.056v1.008c0 0.179-0.091 0.346-0.242 0.443l-1.647 1.062c-1.181-1.855-1.808-4.009-1.806-6.208 0-0.177 0.005-0.352 0.013-0.528h0.918c0.2-0.001 0.383 0.113 0.472 0.292l0.618 1.238c0.179 0.357 0.545 0.582 0.944 0.581h0.557c0.332 0 0.644-0.155 0.844-0.419s0.264-0.608 0.173-0.926l-0.672-2.349h1.042c0.36 0 0.708-0.122 0.989-0.347l1.723-1.378c0.555-0.445 0.745-1.206 0.466-1.86l-0.903-2.111c-0.104-0.243-0.013-0.525 0.214-0.661l1.329-0.797c0.482-0.29 0.774-0.814 0.769-1.377l-0.009-0.772c1.702-0.32 3.454-0.254 5.128 0.193l0.27-1.018c-5.241-1.402-10.793 0.691-13.806 5.203s-2.817 10.442 0.487 14.746c3.304 4.304 8.981 6.026 14.119 4.282s8.594-6.567 8.595-11.992zM12.653 5.196l0.006 0.537c0.002 0.188-0.095 0.362-0.256 0.458l-1.329 0.798c-0.677 0.409-0.95 1.254-0.64 1.982l0.903 2.111c0.094 0.218 0.030 0.472-0.155 0.62l-1.723 1.378c-0.094 0.074-0.21 0.113-0.329 0.113h-1.042c-0.332-0.001-0.644 0.155-0.844 0.42s-0.264 0.608-0.173 0.926l0.672 2.348h-0.557l-0.618-1.236c-0.266-0.538-0.816-0.877-1.416-0.875h-0.82c0.635-4.558 3.897-8.313 8.32-9.581zM6.634 23.432l1.613-1.040c0.453-0.291 0.726-0.792 0.725-1.33v-1.008h1.301c0.353 0 0.683-0.177 0.878-0.47l0.585-0.878c0.098-0.147 0.263-0.235 0.439-0.235h1.481c0.183 0 0.353 0.095 0.449 0.25l1.125 1.882c0.049 0.082 0.075 0.175 0.075 0.27v2.437c0 0.14-0.055 0.275-0.155 0.374l-1.493 1.493c-0.099 0.099-0.233 0.155-0.374 0.155h-1.354c-0.313 0-0.619 0.093-0.879 0.266l-1.126 0.752c-1.272-0.756-2.389-1.746-3.292-2.918z"></path>
<path d="M1.091 16.874l-1.053 0.073c0.025 0.357 0.062 0.719 0.111 1.074l1.046-0.145c-0.046-0.331-0.081-0.672-0.105-1.003z"></path>
<path d="M2.692 9.065l-0.938-0.484c-0.165 0.316-0.321 0.648-0.463 0.978l0.969 0.418c0.134-0.308 0.28-0.615 0.432-0.912z"></path>
<path d="M1.368 18.87l-1.033 0.217c0.074 0.352 0.158 0.704 0.258 1.049l1.015-0.287c-0.090-0.323-0.171-0.651-0.24-0.98z"></path>
<path d="M1.355 12.859l-1.034-0.211c-0.071 0.35-0.132 0.709-0.179 1.065l1.046 0.14c0.044-0.333 0.101-0.668 0.168-0.994z"></path>
<path d="M3.738 7.341l-0.864-0.608c-0.206 0.293-0.405 0.597-0.591 0.905l0.902 0.547c0.174-0.288 0.36-0.572 0.552-0.844z"></path>
<path d="M1.892 10.917l-0.995-0.35c-0.12 0.34-0.229 0.686-0.324 1.031l1.018 0.281c0.088-0.321 0.19-0.644 0.302-0.962z"></path>
<path d="M1.088 14.857l-1.056-0.069c-0.021 0.345-0.032 0.693-0.032 1.044v0.034l1.056-0.034c0-0.328 0.011-0.653 0.032-0.976z"></path>
<path d="M1.914 20.81l-0.993 0.356c0.121 0.339 0.255 0.676 0.398 1.003l0.967-0.422c-0.133-0.306-0.259-0.62-0.372-0.936z"></path>
<path d="M5.008 5.773l-0.773-0.718c-0.244 0.264-0.483 0.538-0.708 0.815l0.82 0.665c0.21-0.26 0.433-0.516 0.661-0.762z"></path>
<path d="M13.774 1.199l-0.148-1.046c-0.354 0.049-0.712 0.112-1.064 0.186l0.217 1.034c0.329-0.070 0.664-0.128 0.995-0.174z"></path>
<path d="M15.784 1.056l-0.004-1.056c-0.361 0-0.724 0.014-1.079 0.040l0.075 1.056c0.333-0.027 0.669-0.040 1.009-0.040z"></path>
<path d="M11.8 1.613l-0.287-1.016c-0.344 0.097-0.69 0.208-1.029 0.33l0.357 0.993c0.316-0.113 0.639-0.216 0.959-0.307z"></path>
<path d="M6.478 4.394l-0.668-0.817c-0.278 0.227-0.551 0.466-0.812 0.712l0.722 0.769c0.244-0.229 0.499-0.453 0.758-0.664z"></path>
<path d="M9.905 2.293l-0.422-0.967c-0.326 0.143-0.654 0.3-0.973 0.467l0.489 0.935c0.297-0.156 0.602-0.3 0.907-0.435z"></path>
<path d="M8.12 3.225l-0.552-0.9c-0.306 0.188-0.609 0.388-0.9 0.596l0.612 0.86c0.272-0.192 0.555-0.381 0.841-0.556z"></path>
<path d="M21.73 29.386l0.422 0.967c0.329-0.143 0.656-0.3 0.974-0.465l-0.485-0.936c-0.298 0.154-0.604 0.3-0.91 0.434z"></path>
<path d="M26.635 25.916l0.772 0.721c0.245-0.264 0.484-0.536 0.71-0.814l-0.818-0.667c-0.212 0.26-0.436 0.516-0.664 0.76z"></path>
<path d="M25.163 27.293l0.667 0.818c0.278-0.227 0.551-0.465 0.813-0.71l-0.72-0.771c-0.246 0.23-0.499 0.451-0.76 0.664z"></path>
<path d="M27.909 24.352l0.862 0.611c0.207-0.293 0.407-0.597 0.593-0.904l-0.901-0.549c-0.175 0.284-0.361 0.568-0.554 0.841z"></path>
<path d="M23.517 28.457l0.548 0.901c0.305-0.186 0.608-0.386 0.902-0.593l-0.61-0.861c-0.272 0.194-0.556 0.38-0.84 0.554z"></path>
<path d="M19.834 30.061l0.285 1.017c0.345-0.097 0.691-0.207 1.030-0.327l-0.355-0.994c-0.317 0.114-0.638 0.215-0.959 0.305z"></path>
<path d="M30.576 16.841l1.053 0.071c0.024-0.358 0.036-0.721 0.036-1.079h-1.055c0 0.339-0.011 0.675-0.034 1.009z"></path>
<path d="M30.304 18.838l1.034 0.211c0.072-0.35 0.133-0.709 0.182-1.065l-1.046-0.142c-0.045 0.335-0.103 0.669-0.17 0.996z"></path>
<path d="M29.762 20.779l0.994 0.353c0.121-0.34 0.231-0.686 0.327-1.030l-1.017-0.284c-0.090 0.32-0.192 0.644-0.304 0.961z"></path>
<path d="M28.958 22.629l0.937 0.486c0.165-0.317 0.321-0.647 0.464-0.976l-0.968-0.422c-0.133 0.309-0.28 0.615-0.434 0.913z"></path>
<path d="M2.72 22.654l-0.936 0.489c0.166 0.317 0.345 0.633 0.532 0.939l0.903-0.55c-0.176-0.284-0.343-0.579-0.499-0.877z"></path>
<path d="M5.858 28.13c0.28 0.227 0.569 0.447 0.861 0.653l0.607-0.864c-0.275-0.194-0.543-0.397-0.805-0.609l-0.663 0.82z"></path>
<path d="M9.542 30.367c0.328 0.142 0.667 0.276 1.008 0.396l0.352-0.995c-0.317-0.113-0.633-0.237-0.939-0.369l-0.421 0.968z"></path>
<path d="M7.622 29.373c0.308 0.187 0.625 0.365 0.943 0.528l0.485-0.938c-0.297-0.153-0.592-0.319-0.88-0.494l-0.548 0.904z"></path>
<path d="M4.275 26.656c0.246 0.264 0.504 0.52 0.765 0.763l0.72-0.773c-0.244-0.227-0.484-0.467-0.715-0.712l-0.77 0.722z"></path>
<path d="M3.772 24.373l-0.861 0.61c0.207 0.292 0.427 0.581 0.654 0.859l0.815-0.669c-0.211-0.259-0.415-0.528-0.608-0.801z"></path>
<path d="M17.861 30.472l0.143 1.045c0.354-0.049 0.713-0.11 1.065-0.183l-0.214-1.033c-0.33 0.068-0.663 0.126-0.994 0.171z"></path>
<path d="M13.696 31.522c0.353 0.048 0.715 0.084 1.075 0.106l0.070-1.055c-0.337-0.022-0.675-0.056-1.003-0.101l-0.143 1.051z"></path>
<path d="M15.848 30.61v1.055c0.362 0 0.725-0.013 1.080-0.037l-0.072-1.055c-0.332 0.025-0.668 0.037-1.008 0.037z"></path>
<path d="M11.581 31.088c0.347 0.096 0.7 0.182 1.050 0.254l0.211-1.034c-0.327-0.067-0.657-0.147-0.979-0.236l-0.282 1.017z"></path>
<path d="M20.16 4.454l-0.304 5.162c-0.044 0.752 0.236 1.488 0.768 2.021l1.024 1.023 1.863-4.848 1.884 1.883v2.33c-0.001 0.419 0.166 0.822 0.464 1.117l0.915 0.916 1.119-1.866 0.268 0.268c0.398 0.412 0.986 0.577 1.54 0.432s0.986-0.577 1.131-1.131c0.145-0.554-0.020-1.142-0.432-1.54l-0.268-0.268 1.866-1.12-0.915-0.916c-0.296-0.298-0.699-0.465-1.119-0.464h-2.331l-1.88-1.883 4.851-1.866-1.026-1.024c-0.533-0.533-1.268-0.813-2.021-0.768l-5.162 0.304-1.698-1.698c-0.627-0.598-1.613-0.598-2.239 0-0.618 0.618-0.618 1.621 0 2.239l1.7 1.698zM21.251 10.754c-0.242-0.305-0.363-0.689-0.34-1.077l0.248-4.222 1.539 1.539-1.447 3.76zM26.567 12.349c-0.074-0.094-0.115-0.21-0.116-0.33v-1.272l0.675 0.674-0.559 0.928zM29.965 8.506c0.12 0 0.236 0.041 0.33 0.116l-0.93 0.561-0.674-0.673 1.274-0.003zM27.621 2.965c0.389-0.023 0.772 0.098 1.077 0.34l-3.762 1.447-1.539-1.539 4.224-0.248zM19.207 1.263c0.206-0.206 0.54-0.206 0.746 0l9.703 9.703c0.206 0.206 0.206 0.54 0 0.746-0.209 0.2-0.538 0.2-0.746 0l-9.702-9.703c-0.206-0.206-0.206-0.54 0-0.746z"></path>
</symbol>
<symbol id="icon-service2" viewBox="0 0 32 32">
<path d="M15.096 0.695c-0.448-0.448-1.043-0.695-1.677-0.695-0.483 0-0.945 0.144-1.335 0.411-0.39-0.267-0.852-0.411-1.335-0.411-0.633 0-1.229 0.247-1.677 0.695s-0.695 1.043-0.695 1.677c0 0.633 0.247 1.229 0.695 1.677l2.67 2.67c0.094 0.094 0.218 0.142 0.342 0.142s0.247-0.047 0.342-0.142l2.67-2.67c0.924-0.925 0.924-2.429 0-3.354zM14.412 3.365l-2.328 2.328-2.328-2.328c-0.265-0.265-0.411-0.618-0.411-0.993s0.146-0.728 0.411-0.993c0.265-0.265 0.618-0.411 0.993-0.411s0.728 0.146 0.993 0.412c0.091 0.091 0.214 0.142 0.342 0.142s0.251-0.051 0.342-0.142c0.265-0.265 0.618-0.411 0.993-0.411s0.728 0.146 0.993 0.411c0.548 0.548 0.547 1.439 0 1.986z"></path>
<path d="M19.563 5.943c-0.27-0.27-0.628-0.418-1.010-0.418-0.237 0-0.464 0.057-0.667 0.165-0.203-0.108-0.431-0.165-0.668-0.165-0.381 0-0.74 0.149-1.009 0.418s-0.418 0.628-0.418 1.009c0 0.381 0.148 0.74 0.418 1.009l1.335 1.335c0.091 0.091 0.214 0.142 0.342 0.142s0.251-0.051 0.342-0.142l1.335-1.335c0.556-0.557 0.556-1.462 0-2.019zM18.879 7.278l-0.993 0.993-0.993-0.993c-0.087-0.087-0.135-0.203-0.135-0.326s0.048-0.239 0.135-0.326c0.087-0.087 0.203-0.135 0.326-0.135s0.239 0.048 0.326 0.135c0.091 0.091 0.214 0.142 0.342 0.142h0c0.128-0 0.251-0.051 0.342-0.142 0.087-0.087 0.202-0.135 0.325-0.135s0.239 0.048 0.326 0.135c0.18 0.18 0.179 0.472 0 0.651z"></path>
<path d="M27.396 7.787c-0.12 0-2.952 0.017-4.444 1.509l-2.997 2.997-14.321-3.58c-0.003-0.001-0.007-0.001-0.010-0.002-0.009-0.002-0.018-0.004-0.028-0.005-0.007-0.001-0.014-0.002-0.021-0.003-0.008-0.001-0.017-0.002-0.025-0.002s-0.016-0.001-0.023-0.001c-0.008-0-0.016-0-0.023 0s-0.016 0.001-0.023 0.001c-0.008 0.001-0.016 0.002-0.024 0.003s-0.014 0.002-0.021 0.003c-0.009 0.002-0.018 0.003-0.027 0.006-0.006 0.001-0.011 0.003-0.017 0.004-0.010 0.003-0.020 0.006-0.030 0.009-0.004 0.001-0.009 0.003-0.013 0.005-0.011 0.004-0.021 0.008-0.031 0.013-0.004 0.002-0.007 0.003-0.011 0.005-0.010 0.005-0.020 0.010-0.030 0.016-0.004 0.002-0.008 0.004-0.012 0.007-0.009 0.005-0.018 0.011-0.026 0.017-0.005 0.003-0.010 0.007-0.014 0.010-0.007 0.006-0.014 0.011-0.021 0.017s-0.012 0.010-0.017 0.016c-0.003 0.003-0.006 0.006-0.010 0.009l-1.367 1.367c-0.002 0.002-0.004 0.005-0.006 0.007-0.006 0.006-0.012 0.013-0.018 0.020s-0.011 0.013-0.016 0.019c-0.002 0.003-0.005 0.005-0.007 0.008s-0.004 0.006-0.006 0.010-0.010 0.015-0.015 0.023c-0.004 0.006-0.007 0.012-0.011 0.018-0.004 0.008-0.009 0.016-0.012 0.024-0.003 0.007-0.006 0.013-0.009 0.020s-0.006 0.015-0.009 0.023c-0.003 0.007-0.005 0.015-0.008 0.022s-0.004 0.014-0.006 0.022c-0.002 0.008-0.004 0.016-0.006 0.024-0.002 0.007-0.003 0.014-0.004 0.021-0.001 0.008-0.003 0.017-0.004 0.025-0.001 0.007-0.001 0.014-0.002 0.021-0.001 0.008-0.001 0.016-0.001 0.024s-0 0.015 0 0.023c0 0.008 0.001 0.015 0.001 0.023s0.001 0.016 0.002 0.024c0.001 0.007 0.002 0.014 0.003 0.021 0.001 0.008 0.003 0.017 0.005 0.025 0.001 0.007 0.003 0.013 0.005 0.020 0.002 0.008 0.005 0.017 0.008 0.025 0.002 0.007 0.004 0.013 0.007 0.019 0.003 0.008 0.006 0.016 0.010 0.024 0.003 0.007 0.006 0.013 0.009 0.020s0.007 0.014 0.011 0.021c0.004 0.007 0.008 0.014 0.012 0.021s0.008 0.012 0.012 0.019c0.005 0.007 0.010 0.014 0.016 0.021 0.004 0.006 0.009 0.011 0.013 0.016 0.006 0.007 0.012 0.014 0.019 0.021 0.003 0.003 0.005 0.006 0.008 0.009s0.005 0.005 0.008 0.007c0.006 0.006 0.012 0.011 0.019 0.017s0.014 0.011 0.020 0.017c0.003 0.002 0.005 0.004 0.008 0.006l10.032 7.415-4.862 4.862-2.451-0.817c-0.005-0.002-0.010-0.003-0.014-0.004-0.009-0.003-0.018-0.005-0.027-0.008-0.008-0.002-0.016-0.003-0.024-0.005s-0.014-0.003-0.022-0.004c-0.009-0.001-0.018-0.002-0.027-0.003-0.006-0.001-0.013-0.001-0.019-0.001-0.010-0-0.019-0-0.029-0-0.006 0-0.012 0-0.018 0.001-0.010 0.001-0.019 0.001-0.028 0.003-0.006 0.001-0.012 0.001-0.019 0.002-0.009 0.001-0.018 0.003-0.027 0.005-0.006 0.001-0.013 0.003-0.019 0.004-0.009 0.002-0.018 0.005-0.027 0.008-0.006 0.002-0.012 0.004-0.018 0.006-0.010 0.004-0.019 0.008-0.028 0.012-0.005 0.002-0.010 0.004-0.015 0.007-0.011 0.005-0.021 0.011-0.031 0.017-0.003 0.002-0.006 0.003-0.009 0.005l-0.006 0.004c-0.001 0-0.002 0.001-0.002 0.001l-2.266 1.36c-0.001 0.001-0.002 0.001-0.003 0.002l-0.001 0c-0.001 0.001-0.002 0.002-0.003 0.002-0.012 0.008-0.024 0.016-0.036 0.024-0.004 0.003-0.007 0.006-0.011 0.009-0.009 0.007-0.017 0.014-0.026 0.021-0.006 0.005-0.011 0.010-0.016 0.016s-0.012 0.011-0.017 0.017c-0.007 0.008-0.014 0.016-0.020 0.025-0.003 0.004-0.007 0.008-0.010 0.012-0.009 0.012-0.017 0.024-0.024 0.036-0.001 0.001-0.002 0.002-0.002 0.004-0 0-0 0-0 0-0.017 0.028-0.030 0.057-0.041 0.087-0.005 0.013-0.008 0.026-0.012 0.039-0.001 0.002-0.001 0.004-0.002 0.006-0.003 0.012-0.005 0.024-0.007 0.036-0.001 0.003-0.001 0.006-0.002 0.010-0.002 0.010-0.002 0.021-0.003 0.031-0 0.005-0.001 0.011-0.001 0.016-0 0.008-0 0.016-0 0.023s-0 0.016 0 0.024c0 0.005 0.001 0.010 0.001 0.015 0.001 0.011 0.002 0.021 0.003 0.032 0.001 0.003 0.001 0.006 0.002 0.009 0.002 0.013 0.004 0.025 0.007 0.037 0 0.001 0 0.001 0.001 0.002 0.006 0.022 0.014 0.045 0.023 0.066 0.003 0.007 0.005 0.013 0.008 0.020 0.001 0.002 0.002 0.003 0.003 0.005 0.006 0.013 0.013 0.026 0.020 0.038 0 0 0 0.001 0 0.001s0.001 0.002 0.002 0.003c0.009 0.016 0.020 0.030 0.031 0.045 0.003 0.004 0.007 0.008 0.010 0.013 0.009 0.011 0.019 0.022 0.029 0.032 0.004 0.004 0.007 0.008 0.011 0.012 0.013 0.012 0.027 0.024 0.042 0.035 0.005 0.004 0.010 0.007 0.015 0.010 0.008 0.006 0.017 0.012 0.026 0.017l4.027 2.416-0.474 0.474c-0.189 0.189-0.189 0.495 0 0.684 0.094 0.094 0.218 0.142 0.342 0.142s0.247-0.047 0.342-0.142l0.474-0.474 2.414 4.023c0.001 0.001 0.001 0.002 0.002 0.003l0 0.001c0 0 0.001 0.001 0.001 0.001 0.010 0.016 0.021 0.032 0.032 0.047 0.003 0.004 0.006 0.008 0.009 0.012 0.009 0.011 0.019 0.022 0.030 0.033 0.004 0.004 0.007 0.007 0.011 0.011 0.013 0.013 0.027 0.025 0.042 0.036 0.004 0.003 0.009 0.006 0.013 0.009 0.009 0.006 0.017 0.012 0.027 0.018 0.002 0.001 0.004 0.002 0.006 0.003 0.012 0.007 0.024 0.013 0.036 0.019 0.008 0.004 0.015 0.008 0.023 0.011 0.011 0.004 0.022 0.008 0.033 0.011 0.009 0.003 0.019 0.007 0.028 0.009s0.019 0.004 0.029 0.006c0.011 0.002 0.022 0.005 0.033 0.006 0.013 0.002 0.026 0.002 0.040 0.003 0.007 0 0.014 0.001 0.021 0.001 0 0 0-0 0-0s0 0 0 0c0.007 0 0.014-0.001 0.022-0.001 0.013-0.001 0.027-0.001 0.040-0.003 0.011-0.001 0.022-0.004 0.033-0.006 0.010-0.002 0.019-0.003 0.029-0.006s0.019-0.006 0.028-0.009c0.011-0.004 0.022-0.007 0.032-0.011 0.008-0.003 0.015-0.007 0.023-0.011 0.012-0.006 0.024-0.011 0.036-0.018 0.002-0.001 0.004-0.002 0.006-0.003 0.010-0.006 0.019-0.012 0.028-0.019 0.004-0.003 0.008-0.005 0.012-0.008 0.015-0.011 0.029-0.023 0.043-0.036 0.003-0.003 0.007-0.007 0.010-0.010 0.011-0.011 0.021-0.022 0.030-0.033 0.003-0.004 0.006-0.008 0.009-0.012 0.012-0.015 0.023-0.030 0.032-0.046 0-0 0.001-0.001 0.001-0.001l0.001-0.001c0.001-0.001 0.001-0.002 0.002-0.003l1.365-2.275c0.003-0.005 0.005-0.010 0.008-0.015 0.004-0.007 0.008-0.015 0.012-0.023s0.007-0.015 0.010-0.023c0.003-0.007 0.006-0.013 0.008-0.020 0.003-0.008 0.006-0.017 0.008-0.025 0.002-0.007 0.004-0.013 0.006-0.020 0.002-0.008 0.004-0.017 0.006-0.025 0.001-0.007 0.003-0.014 0.004-0.021 0.001-0.008 0.002-0.016 0.003-0.024s0.002-0.015 0.002-0.023c0-0.007 0.001-0.015 0.001-0.022s0-0.016-0-0.025c-0-0.007-0.001-0.014-0.002-0.021-0.001-0.009-0.001-0.017-0.003-0.026-0.001-0.007-0.003-0.015-0.004-0.022s-0.003-0.016-0.005-0.024c-0.002-0.008-0.004-0.017-0.007-0.025-0.002-0.006-0.003-0.011-0.005-0.017l-0.817-2.451 13.917-13.917c0.001-0.001 0.001-0.001 0.002-0.002 1.492-1.492 1.509-4.324 1.509-4.444 0-0.267-0.216-0.483-0.483-0.483zM4.888 10.494l0.777-0.777 13.493 3.373-4.572 4.572-9.698-7.167zM25.689 12.029c-0.001 0.001-0.001 0.001-0.002 0.002l-14.131 14.131c-0.002 0.002-0.003 0.003-0.005 0.005-0.007 0.007-0.013 0.014-0.019 0.021-0.005 0.005-0.009 0.011-0.014 0.016s-0.009 0.012-0.014 0.019c-0.005 0.007-0.010 0.014-0.015 0.021-0.003 0.005-0.006 0.010-0.009 0.015-0.005 0.009-0.010 0.017-0.015 0.026-0.002 0.004-0.004 0.009-0.006 0.013-0.004 0.010-0.009 0.019-0.013 0.029-0.002 0.005-0.004 0.010-0.005 0.015-0.003 0.009-0.007 0.019-0.009 0.028-0.002 0.007-0.003 0.014-0.005 0.020-0.002 0.008-0.004 0.016-0.005 0.024s-0.003 0.017-0.004 0.026c-0.001 0.006-0.002 0.013-0.003 0.019-0.001 0.010-0.001 0.019-0.001 0.029-0 0.006-0.001 0.012-0.001 0.017 0 0.009 0.001 0.018 0.001 0.028 0 0.007 0.001 0.013 0.001 0.020 0.001 0.008 0.002 0.016 0.003 0.024s0.002 0.016 0.004 0.024c0.001 0.006 0.003 0.013 0.005 0.019 0.002 0.010 0.005 0.019 0.008 0.029 0.001 0.002 0.001 0.004 0.002 0.006l0.842 2.524-0.838 1.397-2.126-3.543 2.012-2.012c0.189-0.189 0.189-0.495 0-0.684s-0.495-0.189-0.684 0l-2.012 2.012-3.543-2.126 1.397-0.838 2.524 0.842c0.002 0.001 0.003 0.001 0.005 0.001 0.021 0.007 0.043 0.012 0.065 0.016 0.005 0.001 0.011 0.002 0.016 0.002 0.020 0.003 0.040 0.005 0.060 0.005 0.002 0 0.004 0.001 0.007 0.001s0.005-0.001 0.007-0.001c0.019-0 0.038-0.002 0.057-0.004 0.006-0.001 0.012-0.002 0.018-0.003 0.021-0.004 0.041-0.008 0.061-0.015 0.004-0.001 0.008-0.003 0.012-0.004 0.018-0.006 0.036-0.013 0.054-0.022 0.003-0.002 0.007-0.003 0.010-0.005 0.019-0.010 0.037-0.021 0.055-0.033 0.005-0.003 0.009-0.007 0.014-0.010 0.014-0.010 0.027-0.021 0.040-0.033 0.004-0.004 0.008-0.007 0.012-0.011 0.001-0.001 0.001-0.001 0.002-0.002l14.131-14.131c0.874-0.874 2.441-1.125 3.249-1.197-0.071 0.806-0.32 2.369-1.196 3.246z"></path>
<path d="M26.966 30.115c-0-0.008-0.001-0.016-0.002-0.024s-0.002-0.015-0.003-0.022c-0.001-0.009-0.003-0.018-0.005-0.027-0.001-0.004-0.001-0.007-0.002-0.011l-3.099-12.398c-0.065-0.259-0.327-0.416-0.586-0.352s-0.417 0.327-0.352 0.586l3.033 12.133-0.777 0.777-6.253-8.46c-0.159-0.215-0.461-0.26-0.676-0.101s-0.26 0.461-0.101 0.676l6.586 8.911c0.002 0.002 0.004 0.004 0.005 0.006 0.008 0.010 0.016 0.019 0.024 0.029 0.004 0.005 0.009 0.010 0.013 0.015 0.002 0.002 0.003 0.003 0.004 0.005 0.007 0.007 0.014 0.013 0.022 0.020 0.005 0.004 0.009 0.009 0.014 0.013 0.014 0.011 0.027 0.021 0.042 0.031 0.004 0.003 0.008 0.005 0.012 0.007 0.011 0.007 0.022 0.013 0.034 0.019 0.005 0.003 0.011 0.005 0.016 0.007 0.011 0.005 0.022 0.010 0.033 0.014 0.006 0.002 0.011 0.004 0.017 0.006 0.011 0.004 0.022 0.007 0.034 0.010 0.006 0.001 0.011 0.003 0.017 0.004 0.012 0.003 0.024 0.005 0.036 0.006 0.005 0.001 0.010 0.002 0.015 0.002 0.017 0.002 0.033 0.003 0.050 0.003 0 0 0.001 0 0.001 0s0.001-0 0.002-0c0.021-0 0.043-0.002 0.064-0.005 0.005-0.001 0.010-0.001 0.015-0.002 0.021-0.004 0.042-0.009 0.063-0.015 0.004-0.001 0.008-0.003 0.012-0.004 0.020-0.007 0.040-0.015 0.060-0.025 0.002-0.001 0.004-0.002 0.005-0.003 0.021-0.011 0.041-0.023 0.060-0.037 0.002-0.001 0.004-0.002 0.006-0.004s0.005-0.004 0.008-0.006 0.014-0.011 0.020-0.017c0.006-0.005 0.013-0.011 0.019-0.017 0.003-0.002 0.005-0.005 0.008-0.007l1.367-1.367c0.003-0.003 0.005-0.006 0.008-0.008 0.006-0.006 0.012-0.013 0.018-0.020s0.010-0.012 0.015-0.019c0.004-0.006 0.009-0.012 0.013-0.018 0.005-0.007 0.010-0.015 0.015-0.022 0.003-0.005 0.006-0.011 0.009-0.016 0.005-0.008 0.009-0.017 0.014-0.025 0.003-0.005 0.005-0.011 0.008-0.016 0.004-0.009 0.008-0.017 0.011-0.026 0.002-0.006 0.004-0.012 0.007-0.019 0.003-0.008 0.005-0.016 0.008-0.024s0.004-0.015 0.006-0.022c0.002-0.007 0.003-0.015 0.004-0.022 0.002-0.009 0.003-0.017 0.004-0.026 0.001-0.007 0.002-0.013 0.002-0.020 0.001-0.009 0.001-0.018 0.001-0.027 0-0.007 0-0.014 0-0.021-0-0.008-0.001-0.017-0.001-0.025z"></path>
</symbol>
<symbol id="icon-service3" viewBox="0 0 32 32">
<path d="M29.867 30.933v-20.267c0-0.245-0.167-0.458-0.404-0.517l-10.262-2.566v-2.783c0-0.242-0.163-0.453-0.396-0.515l-16-4.267c-0.16-0.043-0.331-0.009-0.462 0.092s-0.209 0.257-0.209 0.423v30.4h-2.133v1.067h32v-1.067h-2.133zM3.2 1.227l14.933 3.982v25.725h-2.667v-5.867c0-0.295-0.239-0.533-0.533-0.533h-8.533c-0.295 0-0.533 0.239-0.533 0.533v5.867h-2.667v-29.707zM6.933 25.6h3.2v5.333h-3.2v-5.333zM11.2 30.933v-5.333h3.2v5.333h-3.2zM22.4 30.933v-4.267h3.2v4.267h-3.2zM26.667 30.933v-4.8c0-0.295-0.239-0.533-0.533-0.533h-4.267c-0.295 0-0.533 0.239-0.533 0.533v4.8h-2.133v-22.25l9.6 2.4v19.85h-2.133z"></path>
<path d="M6.933 22.401h2.133c0.295 0 0.533-0.239 0.533-0.533v-2.133c0-0.295-0.239-0.533-0.533-0.533h-2.133c-0.295 0-0.533 0.239-0.533 0.533v2.133c0 0.294 0.239 0.533 0.533 0.533zM7.467 20.267h1.067v1.067h-1.067v-1.067z"></path>
<path d="M12.267 22.401h2.133c0.295 0 0.533-0.239 0.533-0.533v-2.133c0-0.295-0.239-0.533-0.533-0.533h-2.133c-0.295 0-0.533 0.239-0.533 0.533v2.133c0 0.294 0.239 0.533 0.533 0.533zM12.8 20.267h1.067v1.067h-1.067v-1.067z"></path>
<path d="M22.933 20.267h-2.133c-0.295 0-0.533 0.239-0.533 0.533v2.133c0 0.294 0.239 0.533 0.533 0.533h2.133c0.295 0 0.533-0.239 0.533-0.533v-2.133c0-0.295-0.239-0.533-0.533-0.533zM22.4 22.401h-1.067v-1.067h1.067v1.067z"></path>
<path d="M27.2 20.267h-2.133c-0.295 0-0.533 0.239-0.533 0.533v2.133c0 0.294 0.239 0.533 0.533 0.533h2.133c0.295 0 0.533-0.239 0.533-0.533v-2.133c0-0.295-0.239-0.533-0.533-0.533zM26.667 22.401h-1.067v-1.067h1.067v1.067z"></path>
<path d="M22.933 16.001h-2.133c-0.295 0-0.533 0.239-0.533 0.533v2.133c0 0.294 0.239 0.533 0.533 0.533h2.133c0.295 0 0.533-0.239 0.533-0.533v-2.133c0-0.295-0.239-0.533-0.533-0.533zM22.4 18.134h-1.067v-1.067h1.067v1.067z"></path>
<path d="M27.2 16.001h-2.133c-0.295 0-0.533 0.239-0.533 0.533v2.133c0 0.294 0.239 0.533 0.533 0.533h2.133c0.295 0 0.533-0.239 0.533-0.533v-2.133c0-0.295-0.239-0.533-0.533-0.533zM26.667 18.134h-1.067v-1.067h1.067v1.067z"></path>
<path d="M22.933 11.734h-2.133c-0.295 0-0.533 0.239-0.533 0.533v2.133c0 0.295 0.239 0.533 0.533 0.533h2.133c0.295 0 0.533-0.239 0.533-0.533v-2.133c0-0.295-0.239-0.533-0.533-0.533zM22.4 13.867h-1.067v-1.067h1.067v1.067z"></path>
<path d="M27.2 11.734h-2.133c-0.295 0-0.533 0.239-0.533 0.533v2.133c0 0.295 0.239 0.533 0.533 0.533h2.133c0.295 0 0.533-0.239 0.533-0.533v-2.133c0-0.295-0.239-0.533-0.533-0.533zM26.667 13.867h-1.067v-1.067h1.067v1.067z"></path>
<path d="M6.933 18.134h2.133c0.295 0 0.533-0.239 0.533-0.533v-2.133c0-0.295-0.239-0.533-0.533-0.533h-2.133c-0.295 0-0.533 0.239-0.533 0.533v2.133c0 0.294 0.239 0.533 0.533 0.533zM7.467 16.001h1.067v1.067h-1.067v-1.067z"></path>
<path d="M12.267 18.134h2.133c0.295 0 0.533-0.239 0.533-0.533v-2.133c0-0.295-0.239-0.533-0.533-0.533h-2.133c-0.295 0-0.533 0.239-0.533 0.533v2.133c0 0.294 0.239 0.533 0.533 0.533zM12.8 16.001h1.067v1.067h-1.067v-1.067z"></path>
<path d="M6.933 13.867h2.133c0.295 0 0.533-0.239 0.533-0.533v-2.133c0-0.295-0.239-0.533-0.533-0.533h-2.133c-0.295 0-0.533 0.239-0.533 0.533v2.133c0 0.294 0.239 0.533 0.533 0.533zM7.467 11.734h1.067v1.067h-1.067v-1.067z"></path>
<path d="M12.267 13.867h2.133c0.295 0 0.533-0.239 0.533-0.533v-2.133c0-0.295-0.239-0.533-0.533-0.533h-2.133c-0.295 0-0.533 0.239-0.533 0.533v2.133c0 0.294 0.239 0.533 0.533 0.533zM12.8 11.734h1.067v1.067h-1.067v-1.067z"></path>
<path d="M6.933 9.601h2.133c0.295 0 0.533-0.239 0.533-0.533v-2.133c0-0.295-0.239-0.533-0.533-0.533h-2.133c-0.295 0-0.533 0.239-0.533 0.533v2.133c0 0.294 0.239 0.533 0.533 0.533zM7.467 7.467h1.067v1.067h-1.067v-1.067z"></path>
<path d="M12.267 9.601h2.133c0.295 0 0.533-0.239 0.533-0.533v-2.133c0-0.295-0.239-0.533-0.533-0.533h-2.133c-0.295 0-0.533 0.239-0.533 0.533v2.133c0 0.294 0.239 0.533 0.533 0.533zM12.8 7.467h1.067v1.067h-1.067v-1.067z"></path>
</symbol>
<symbol id="icon-service4" viewBox="0 0 32 32">
<path d="M30.382 25.276h-3.032c-0.12 0-0.234-0.047-0.319-0.132s-0.132-0.199-0.132-0.319c0-0.12 0.048-0.235 0.132-0.319s0.199-0.132 0.319-0.132h3.032c0.080-0 0.157-0.032 0.214-0.089s0.089-0.134 0.089-0.214v-1.426c-0.001-0.977-0.39-1.915-1.081-2.606s-1.628-1.080-2.606-1.081h-26.095v4.589c0 0.219 0.087 0.429 0.242 0.584s0.365 0.242 0.584 0.242h1.918c0.12 0 0.234 0.047 0.319 0.132s0.132 0.199 0.132 0.319c0 0.12-0.048 0.234-0.132 0.319s-0.199 0.132-0.319 0.132h-1.918c-0.458-0-0.897-0.183-1.222-0.507s-0.506-0.763-0.507-1.221v-5.040c0-0.12 0.048-0.234 0.132-0.319s0.199-0.132 0.319-0.132h26.546c1.217 0.001 2.383 0.485 3.243 1.346s1.344 2.027 1.346 3.243v1.426c-0 0.319-0.127 0.626-0.353 0.852s-0.532 0.353-0.852 0.353z"></path>
<path d="M21.809 25.276h-12.486c-0.12 0-0.234-0.047-0.319-0.132s-0.132-0.199-0.132-0.319c0-0.12 0.048-0.234 0.132-0.319s0.199-0.132 0.319-0.132h12.486c0.12 0 0.234 0.047 0.319 0.132s0.132 0.199 0.132 0.319c0 0.12-0.047 0.235-0.132 0.319s-0.199 0.132-0.319 0.132z"></path>
<path d="M0.452 18.961c-0.033-0-0.066-0.004-0.098-0.011-0.058-0.013-0.113-0.037-0.161-0.071s-0.090-0.077-0.122-0.127-0.054-0.106-0.064-0.164c-0.010-0.058-0.009-0.118 0.004-0.176 0.576-2.244 1.91-4.221 3.775-5.595 0.594-0.41 1.3-0.628 2.022-0.625h11.395c0.614 0.001 1.221 0.128 1.783 0.374s1.068 0.606 1.484 1.056l4.228 4.581c0.043 0.043 0.077 0.094 0.099 0.151s0.034 0.117 0.033 0.177c-0.001 0.061-0.015 0.121-0.040 0.176s-0.061 0.105-0.105 0.146c-0.045 0.041-0.097 0.073-0.154 0.093s-0.118 0.029-0.179 0.025c-0.061-0.004-0.12-0.019-0.174-0.046s-0.103-0.065-0.142-0.111l-4.226-4.58c-0.332-0.359-0.735-0.646-1.183-0.842s-0.932-0.298-1.421-0.298h-11.397c-0.539-0.002-1.065 0.161-1.509 0.467-2.669 1.842-3.4 5.014-3.406 5.046-0.022 0.1-0.078 0.19-0.158 0.254s-0.18 0.099-0.283 0.099z"></path>
<path d="M14.44 18.961c-0.108-0-0.212-0.039-0.293-0.109s-0.136-0.167-0.152-0.274l-0.902-5.866c-0.011-0.060-0.011-0.121 0.002-0.18s0.038-0.115 0.073-0.165c0.035-0.049 0.080-0.091 0.131-0.123s0.109-0.053 0.169-0.062c0.060-0.009 0.121-0.006 0.18 0.009s0.114 0.042 0.162 0.079c0.048 0.037 0.088 0.083 0.118 0.136s0.049 0.111 0.056 0.171l0.902 5.866c0.010 0.064 0.005 0.13-0.013 0.192s-0.049 0.12-0.092 0.169-0.095 0.089-0.154 0.116c-0.059 0.027-0.123 0.041-0.188 0.041z"></path>
<path d="M5.867 18.961c-0.045 0-0.090-0.007-0.133-0.020-0.114-0.035-0.21-0.114-0.266-0.22s-0.068-0.229-0.033-0.344l1.805-5.866c0.017-0.057 0.046-0.109 0.084-0.155s0.084-0.083 0.137-0.111c0.052-0.028 0.11-0.045 0.169-0.050s0.119 0.001 0.175 0.018c0.057 0.017 0.109 0.046 0.155 0.084s0.083 0.084 0.111 0.137c0.028 0.052 0.045 0.11 0.050 0.169s-0.001 0.119-0.018 0.175l-1.805 5.866c-0.028 0.092-0.086 0.173-0.163 0.23s-0.172 0.088-0.268 0.088z"></path>
<path d="M24.584 28.182c-0.638 0-1.261-0.189-1.792-0.543s-0.944-0.858-1.188-1.447c-0.244-0.589-0.308-1.238-0.184-1.863s0.431-1.2 0.883-1.651c0.451-0.451 1.026-0.758 1.651-0.883s1.274-0.061 1.863 0.183c0.589 0.244 1.093 0.657 1.447 1.188s0.544 1.154 0.544 1.792c-0.001 0.855-0.341 1.675-0.945 2.279s-1.424 0.945-2.279 0.946zM24.584 22.635c-0.459-0-0.908 0.136-1.29 0.391s-0.68 0.618-0.856 1.042c-0.176 0.424-0.222 0.891-0.132 1.342s0.311 0.864 0.636 1.189c0.325 0.325 0.739 0.546 1.189 0.636s0.918 0.044 1.342-0.132c0.424-0.176 0.787-0.474 1.042-0.856s0.391-0.831 0.391-1.291c-0-0.616-0.245-1.206-0.681-1.642s-1.026-0.681-1.642-0.681v0.001z"></path>
<path d="M24.584 26.473c-0.3 0-0.593-0.089-0.842-0.255s-0.444-0.403-0.559-0.68c-0.115-0.277-0.145-0.582-0.086-0.876s0.203-0.564 0.415-0.776c0.212-0.212 0.482-0.357 0.776-0.415s0.599-0.029 0.876 0.086 0.514 0.309 0.68 0.558c0.167 0.249 0.256 0.542 0.256 0.842-0 0.402-0.16 0.787-0.444 1.072s-0.669 0.444-1.071 0.445zM24.584 24.343c-0.121-0-0.24 0.036-0.341 0.103s-0.18 0.163-0.226 0.275c-0.047 0.112-0.059 0.236-0.035 0.355s0.082 0.228 0.168 0.314c0.086 0.086 0.195 0.144 0.314 0.168s0.242 0.011 0.355-0.035c0.112-0.047 0.208-0.125 0.275-0.226s0.103-0.22 0.103-0.341c-0-0.163-0.065-0.318-0.18-0.433s-0.271-0.18-0.433-0.18z"></path>
<path d="M6.486 26.473c-0.3 0-0.593-0.089-0.842-0.256s-0.444-0.403-0.558-0.68c-0.115-0.277-0.145-0.582-0.086-0.876s0.203-0.564 0.415-0.776 0.482-0.356 0.776-0.415c0.294-0.058 0.599-0.028 0.876 0.086s0.514 0.309 0.68 0.558c0.167 0.249 0.256 0.542 0.256 0.842-0 0.402-0.16 0.787-0.445 1.072s-0.67 0.444-1.072 0.444zM6.486 24.343c-0.121 0-0.24 0.036-0.341 0.103s-0.18 0.163-0.226 0.275c-0.046 0.112-0.059 0.236-0.035 0.355s0.082 0.228 0.168 0.314c0.086 0.086 0.195 0.144 0.314 0.168s0.242 0.011 0.355-0.035 0.208-0.125 0.275-0.226c0.067-0.101 0.103-0.22 0.103-0.341-0-0.163-0.065-0.319-0.18-0.434s-0.271-0.18-0.434-0.18z"></path>
<path d="M6.486 28.249c-0.652 0-1.288-0.193-1.83-0.555s-0.964-0.876-1.213-1.478c-0.249-0.602-0.315-1.264-0.187-1.903s0.441-1.226 0.901-1.687c0.461-0.461 1.048-0.774 1.687-0.901s1.301-0.062 1.903 0.187c0.602 0.249 1.116 0.671 1.478 1.213s0.555 1.179 0.555 1.83c-0.001 0.873-0.348 1.711-0.965 2.329s-1.455 0.965-2.329 0.965zM6.486 22.566c-0.473 0-0.935 0.14-1.329 0.403s-0.7 0.636-0.881 1.073-0.228 0.918-0.136 1.382c0.092 0.464 0.32 0.89 0.654 1.224s0.761 0.562 1.224 0.655c0.464 0.092 0.945 0.045 1.382-0.136s0.81-0.488 1.073-0.881c0.263-0.393 0.403-0.856 0.403-1.329 0-0.314-0.062-0.625-0.182-0.915s-0.296-0.554-0.518-0.776c-0.222-0.222-0.486-0.398-0.776-0.518s-0.601-0.182-0.915-0.182z"></path>
<path d="M18.050 21.218h-0.902c-0.12 0-0.234-0.047-0.319-0.132s-0.132-0.199-0.132-0.319c0-0.12 0.047-0.234 0.132-0.319s0.199-0.132 0.319-0.132h0.902c0.12 0 0.235 0.047 0.319 0.132s0.132 0.199 0.132 0.319c0 0.12-0.047 0.235-0.132 0.319s-0.199 0.132-0.319 0.132z"></path>
<path d="M12.861 21.218h-0.902c-0.12 0-0.234-0.047-0.319-0.132s-0.132-0.199-0.132-0.319c0-0.12 0.048-0.234 0.132-0.319s0.199-0.132 0.319-0.132h0.902c0.12 0 0.234 0.047 0.319 0.132s0.132 0.199 0.132 0.319c0 0.12-0.047 0.235-0.132 0.319s-0.199 0.132-0.319 0.132z"></path>
<path d="M14.29 13.095h-5.584c-0.12 0-0.234-0.047-0.319-0.132s-0.132-0.199-0.132-0.319v-1.805c0-0.12 0.048-0.234 0.132-0.319s0.199-0.132 0.319-0.132h5.584c0.12 0 0.234 0.048 0.319 0.132s0.132 0.199 0.132 0.319v1.805c0 0.12-0.048 0.234-0.132 0.319s-0.199 0.132-0.319 0.132zM9.157 12.193h4.682v-0.902h-4.682v0.902z"></path>
<path d="M18.341 11.29h-13.686c-0.12 0-0.234-0.047-0.319-0.132s-0.132-0.199-0.132-0.319 0.048-0.234 0.132-0.319c0.085-0.085 0.199-0.132 0.319-0.132h13.686c0.12 0 0.235 0.048 0.319 0.132s0.132 0.199 0.132 0.319-0.048 0.234-0.132 0.319c-0.085 0.085-0.199 0.132-0.319 0.132z"></path>
<path d="M17.238 11.289h-8.177c-0.12 0-0.234-0.048-0.319-0.132s-0.132-0.199-0.132-0.319 0.047-0.234 0.132-0.319c0.085-0.085 0.199-0.132 0.319-0.132h7.726v-5.74c0-0.070-0.028-0.138-0.078-0.188s-0.117-0.078-0.188-0.078h-6.744c-0.070 0-0.138 0.028-0.187 0.078s-0.078 0.117-0.078 0.187v1.652c0 0.12-0.047 0.234-0.132 0.319s-0.199 0.132-0.319 0.132c-0.12 0-0.234-0.048-0.319-0.132s-0.132-0.199-0.132-0.319v-1.652c0-0.31 0.123-0.606 0.342-0.825s0.516-0.342 0.825-0.342h6.743c0.31 0 0.607 0.123 0.826 0.342s0.343 0.516 0.343 0.826v6.191c0 0.12-0.047 0.234-0.132 0.319s-0.199 0.132-0.319 0.132z"></path>
<path d="M13.149 11.29h-7.105c-0.12 0-0.234-0.047-0.319-0.132s-0.132-0.199-0.132-0.319v-3.826c0-0.31 0.124-0.607 0.343-0.826s0.516-0.342 0.826-0.343h5.67c0.31 0 0.607 0.124 0.826 0.343s0.342 0.516 0.343 0.826v3.826c0 0.12-0.048 0.234-0.132 0.319s-0.199 0.132-0.319 0.132zM6.495 10.388h6.202v-3.375c-0-0.071-0.028-0.138-0.078-0.188s-0.118-0.078-0.188-0.078h-5.67c-0.071 0-0.138 0.028-0.188 0.078s-0.078 0.118-0.078 0.188v3.375z"></path>
</symbol>
<symbol id="icon-service5" viewBox="0 0 32 32">
<path d="M9.208 1.585c0-0.18 0.072-0.353 0.199-0.48s0.3-0.199 0.48-0.199h12.226c0.18 0 0.353 0.072 0.48 0.199s0.199 0.3 0.199 0.48v2.491h0.906v-2.491c-0-0.42-0.168-0.823-0.465-1.12s-0.7-0.464-1.12-0.465h-12.226c-0.42 0-0.823 0.168-1.12 0.465s-0.464 0.7-0.465 1.12v2.491h0.906v-2.491z"></path>
<path d="M22.792 23.547h-13.585v-1.358h-0.906v3.396c0 0.42 0.168 0.823 0.465 1.12s0.7 0.464 1.12 0.465h12.226c0.42-0 0.823-0.168 1.12-0.465s0.464-0.7 0.465-1.12v-3.396h-0.906v1.358zM22.113 26.264h-12.226c-0.18-0-0.353-0.072-0.48-0.199s-0.199-0.3-0.199-0.48v-1.132h13.585v1.132c-0 0.18-0.072 0.353-0.199 0.48s-0.3 0.199-0.48 0.199z"></path>
<path d="M14.189 2.264h3.623v0.906h-3.623v-0.906z"></path>
<path d="M28.679 20.264c0 0.030-0.012 0.059-0.033 0.080s-0.050 0.033-0.080 0.033h-25.132c-0.030 0-0.059-0.012-0.080-0.033s-0.033-0.050-0.033-0.080v-11.66h-0.906v11.66c0 0.27 0.108 0.529 0.299 0.72s0.45 0.298 0.72 0.299h25.132c0.27-0 0.529-0.108 0.72-0.299s0.298-0.45 0.299-0.72v-3.509h-0.906v3.509z"></path>
<path d="M28.566 4.981h-25.132c-0.27 0-0.529 0.108-0.72 0.299s-0.298 0.45-0.299 0.72v1.698h0.906v-1.698c0-0.030 0.012-0.059 0.033-0.080s0.050-0.033 0.080-0.033h25.132c0.030 0 0.059 0.012 0.080 0.033s0.033 0.050 0.033 0.080v9.849h0.906v-9.849c-0-0.27-0.108-0.529-0.299-0.72s-0.45-0.298-0.72-0.299z"></path>
<path d="M19.17 16.755h0.906v1.811h-0.906v-1.811z"></path>
<path d="M17.358 16.755h0.906v1.811h-0.906v-1.811z"></path>
<path d="M20.981 16.755h1.811v1.811h-1.811v-1.811z"></path>
<path d="M23.698 16.755h0.906v1.811h-0.906v-1.811z"></path>
<path d="M25.509 16.755h1.811v1.811h-1.811v-1.811z"></path>
<path d="M17.358 12.226h6.34v0.906h-6.34v-0.906z"></path>
<path d="M24.604 12.226h2.717v0.906h-2.717v-0.906z"></path>
<path d="M20.981 14.038h6.34v0.906h-6.34v-0.906z"></path>
<path d="M17.358 14.038h2.717v0.906h-2.717v-0.906z"></path>
<path d="M17.358 10.415h1.811v0.906h-1.811v-0.906z"></path>
<path d="M20.075 10.415h3.623v0.906h-3.623v-0.906z"></path>
<path d="M22.792 7.698h0.906v0.906h-0.906v-0.906z"></path>
<path d="M24.604 7.698h0.906v0.906h-0.906v-0.906z"></path>
<path d="M26.415 7.698h0.906v0.906h-0.906v-0.906z"></path>
<path d="M17.358 8.604h4.075v0.906h-4.075v-0.906z"></path>
<path d="M15.094 19.472c0.12 0 0.235-0.048 0.32-0.133s0.133-0.2 0.133-0.32v-11.774c0-0.12-0.048-0.235-0.133-0.32s-0.2-0.133-0.32-0.133h-9.962c-0.12 0-0.235 0.048-0.32 0.133s-0.133 0.2-0.133 0.32v11.774c0 0.12 0.048 0.235 0.133 0.32s0.2 0.133 0.32 0.133h9.962zM5.585 17.479c0.001-0.253 0.078-0.5 0.223-0.709s0.348-0.368 0.585-0.457l2.203-0.826 0.249 0.332c0.148 0.197 0.339 0.357 0.559 0.467s0.463 0.167 0.709 0.167 0.489-0.057 0.709-0.167c0.22-0.11 0.412-0.27 0.559-0.467l0.249-0.332 2.203 0.826c0.237 0.090 0.441 0.249 0.585 0.457s0.222 0.455 0.223 0.708v1.087h-9.057v-1.087zM10.967 14.861l-0.31 0.414c-0.063 0.084-0.145 0.153-0.24 0.2s-0.198 0.072-0.304 0.072c-0.105 0-0.209-0.024-0.304-0.072s-0.176-0.116-0.24-0.2l-0.31-0.414 0.275-0.824h1.159l0.275 0.824zM11.472 12.453c-0 0.18-0.072 0.353-0.199 0.48s-0.3 0.199-0.48 0.199h-1.358c-0.18-0-0.353-0.072-0.48-0.199s-0.199-0.3-0.199-0.48v-2.264c0-0.18 0.072-0.353 0.199-0.48s0.3-0.199 0.48-0.199h1.358c0.18 0 0.353 0.072 0.48 0.199s0.199 0.3 0.199 0.48v2.264zM14.642 7.698v8.028c-0.151-0.108-0.316-0.196-0.49-0.261l-2.319-0.869-0.255-0.766c0.243-0.139 0.445-0.339 0.585-0.581s0.215-0.516 0.215-0.796v-2.264c-0-0.42-0.168-0.823-0.465-1.12s-0.7-0.464-1.12-0.465h-1.358c-0.42 0-0.823 0.168-1.12 0.465s-0.464 0.7-0.465 1.12v2.264c0 0.28 0.074 0.554 0.215 0.796s0.342 0.442 0.585 0.581l-0.255 0.766-2.319 0.869c-0.174 0.065-0.339 0.153-0.49 0.261v-8.028h9.057z"></path>
</symbol>
<symbol id="icon-service6" viewBox="0 0 32 32">
<path d="M29.015 14.606h-8.039c0.364-0.836 0.519-1.78 0.479-2.71 0.99 0.054 1.897-0.674 1.897-1.717 0-0.36-0.112-0.694-0.302-0.97 0.31-0.206 0.516-0.558 0.516-0.958v-0.822c0-0.634-0.515-1.149-1.149-1.149h-0.962v-2.902c0-1.863-1.515-3.378-3.378-3.378h-4.755c-1.863 0-3.378 1.515-3.378 3.378v2.902h-0.962c-0.634 0-1.149 0.515-1.149 1.149v0.822c0 0.4 0.205 0.752 0.516 0.958-0.19 0.276-0.302 0.61-0.302 0.97 0 1.001 0.887 1.815 1.897 1.717-0.088 0.88 0.145 1.935 0.482 2.71h-8.041c-0.948 0-1.719 0.771-1.719 1.719v4.601c0 0.948 0.771 1.719 1.719 1.719h1.85c-0.043 0.17-0.075 0.342-0.097 0.517-0.224-0.007-0.449 0.053-0.644 0.179-0.315 0.203-0.503 0.545-0.503 0.915v1.434h-0.622c-0.423 0-0.795 0.3-0.886 0.714-0.155 0.709-0.226 1.435-0.212 2.159 0.012 0.6 0.083 1.201 0.212 1.788 0.091 0.414 0.463 0.714 0.886 0.714h0.622v0.469c0 0.259 0.21 0.469 0.469 0.469s0.469-0.21 0.469-0.469v-0.469h0.266c0.861 0 1.561-0.7 1.561-1.561v-2.252c0-0.861-0.7-1.561-1.561-1.561h-0.266v-1.434c0.006-0.124 0.119-0.195 0.255-0.139l4.928 2.242v5.174c0 0.259 0.21 0.469 0.469 0.469s0.469-0.21 0.469-0.469v-5.174l5.183-2.358v7.532c0 0.259 0.21 0.469 0.469 0.469s0.469-0.21 0.469-0.469v-7.532c0.115 0.057 5.059 2.298 5.183 2.358v5.174c0 0.259 0.21 0.469 0.469 0.469s0.469-0.21 0.469-0.469v-5.174l4.928-2.242c0.138-0.056 0.248 0.015 0.254 0.139v1.434h-0.266c-0.861 0-1.561 0.7-1.561 1.561v2.252c0 0.861 0.7 1.561 1.561 1.561h0.266v0.469c0 0.259 0.21 0.469 0.469 0.469s0.469-0.21 0.469-0.469v-0.469h0.622c0.423 0 0.795-0.3 0.886-0.714 0.128-0.587 0.2-1.189 0.212-1.788 0.014-0.723-0.057-1.45-0.212-2.159-0.090-0.413-0.463-0.714-0.886-0.714h-0.622v-1.434c0-0.37-0.188-0.712-0.503-0.915-0.196-0.126-0.42-0.186-0.644-0.179-0.021-0.174-0.054-0.347-0.097-0.517h1.85c0.948 0 1.719-0.771 1.719-1.719v-4.601c-0-0.948-0.771-1.719-1.719-1.719zM3.247 21.707h-0.861c-0.431 0-0.781-0.35-0.781-0.781v-4.601c0-0.431 0.35-0.781 0.781-0.781h0.861v6.164zM4.195 26.626c0.344 0 0.623 0.28 0.623 0.623v2.252c0 0.344-0.28 0.623-0.623 0.623h-1.8c-0.112-0.52-0.174-1.052-0.185-1.583-0.013-0.642 0.049-1.286 0.185-1.916l1.8-0zM29.006 26.626c0.136 0.629 0.198 1.274 0.185 1.916-0.011 0.531-0.073 1.063-0.185 1.583h-1.8c-0.344 0-0.623-0.28-0.623-0.623v-2.252c0-0.344 0.28-0.623 0.623-0.623l1.8 0zM25.342 15.543v4.572c-0.415-0.264-0.876-0.457-1.361-0.564l-4.605-1.012c-0.355-0.078-0.613-0.399-0.613-0.763v-0.601c0.36-0.227 0.699-0.495 1.008-0.804 0.257-0.257 0.486-0.535 0.687-0.828l4.884-0zM21.456 10.958v-1.558c0.481-0.073 0.96 0.274 0.96 0.779 0 0.496-0.474 0.856-0.96 0.779zM10.882 3.378c0-1.346 1.095-2.441 2.441-2.441h4.755c1.346 0 2.441 1.095 2.441 2.441v2.902h-9.636v-2.902zM9.945 10.958c-0.493 0.060-0.96-0.262-0.96-0.779 0-0.503 0.48-0.851 0.96-0.779v1.558zM8.982 8.462c-0.117 0-0.211-0.095-0.211-0.211v-0.822c0-0.117 0.095-0.211 0.211-0.211h13.436c0.117 0 0.211 0.095 0.211 0.211v0.822c0 0.117-0.095 0.211-0.211 0.211h-7.862c-0.259 0-0.469 0.21-0.469 0.469s0.21 0.469 0.469 0.469h5.963v2.902c0.001 1.292-0.507 2.503-1.411 3.407-0.312 0.312-0.66 0.575-1.034 0.787-0.725 0.412-1.513 0.624-2.373 0.624-2.657 0-4.818-2.161-4.818-4.818v-2.902h1.486c0.259 0 0.469-0.21 0.469-0.469s-0.21-0.469-0.469-0.469h-3.386zM18.105 18.709l-2.405 2.405-2.405-2.405c0.2-0.307 0.296-0.682 0.28-1.058 0.658 0.262 1.375 0.407 2.125 0.407 0.74 0 1.458-0.14 2.125-0.405-0.032 0.364 0.088 0.762 0.28 1.057zM6.059 15.543h4.888c0.446 0.652 1.022 1.208 1.691 1.63v0.603c0 0.364-0.258 0.685-0.614 0.763l-4.604 1.012c-0.485 0.107-0.946 0.3-1.361 0.564v-4.572h0zM4.594 21.707h-0.41v-6.164h0.938v5.385c-0.206 0.239-0.382 0.501-0.528 0.779zM9.58 25.541l-4.53-2.060c0.086-1.449 1.14-2.699 2.571-3.014l2.832-0.622 3.642 3.642-4.516 2.054zM21.821 25.541l-4.516-2.054 0.886-0.886c0.183-0.183 0.183-0.48 0-0.663s-0.48-0.183-0.663 0l-1.135 1.135c-0.443-0.186-0.942-0.186-1.385 0l-3.468-3.468 0.685-0.15c0.128-0.028 0.249-0.072 0.364-0.126l2.691 2.691c0.112 0.112 0.261 0.174 0.42 0.174s0.308-0.062 0.42-0.174l2.691-2.691c0.115 0.055 0.236 0.098 0.364 0.126l0.685 0.151-0.771 0.771c-0.183 0.183-0.183 0.48 0 0.663s0.48 0.183 0.663 0l1.195-1.195 2.832 0.622c1.43 0.314 2.484 1.565 2.571 3.014l-4.53 2.060zM27.217 21.707h-0.409c-0.146-0.278-0.323-0.54-0.528-0.779v-5.385h0.937v6.164h-0zM29.797 20.926c0 0.431-0.35 0.781-0.781 0.781h-0.861v-6.164h0.861c0.431 0 0.781 0.35 0.781 0.781v4.601zM18.251 11.957c0.259 0 0.469-0.21 0.469-0.469v-1.020c0-0.259-0.21-0.469-0.469-0.469s-0.469 0.21-0.469 0.469v1.020c0 0.259 0.21 0.469 0.469 0.469zM12.681 10.468v1.020c0 0.259 0.21 0.469 0.469 0.469s0.469-0.21 0.469-0.469v-1.020c0-0.259-0.21-0.469-0.469-0.469s-0.469 0.21-0.469 0.469zM14.455 14.888c0.26 0.143 0.682 0.314 1.219 0.319 0.541 0.006 1.006-0.173 1.273-0.319 0.227-0.124 0.31-0.409 0.186-0.636s-0.409-0.31-0.636-0.186c-0.173 0.095-0.455 0.208-0.812 0.204-0.342-0.004-0.612-0.113-0.778-0.204-0.227-0.125-0.512-0.041-0.636 0.186s-0.041 0.512 0.186 0.636z"></path>
</symbol>
<symbol id="icon-service7" viewBox="0 0 32 32">
<path d="M18.122 20.255c0 2.944 2.386 5.33 5.33 5.33s5.33-2.386 5.33-5.33c0-2.943-2.386-5.33-5.33-5.33-2.942 0.003-5.327 2.387-5.33 5.33zM23.451 15.991c2.355 0 4.264 1.909 4.264 4.264s-1.909 4.264-4.264 4.264c-2.355 0-4.264-1.909-4.264-4.264 0.003-2.354 1.91-4.261 4.264-4.264z"></path>
<path d="M20.406 30.915h6.091v1.066h-6.091v-1.066z"></path>
<path d="M18.122 28.782h10.659v1.066h-10.66v-1.066z"></path>
<path d="M6.396 28.782h1.066v1.066h-1.066v-1.066z"></path>
<path d="M3.199 29.849h1.066v1.066h-1.066v-1.066z"></path>
<path d="M6.449 25.783c2.783-4.847 4.529-10.219 5.128-15.776l4.957 4.927c0.099 0.099 0.233 0.154 0.373 0.155 0.029 0 0.058-0.002 0.086-0.007 0.169-0.027 0.314-0.135 0.391-0.288 1.005-2.005 0.611-4.429-0.976-6.013l-0.436-0.436h3.749c0.294 0 0.533-0.238 0.533-0.533 0-0.058-0.009-0.115-0.027-0.169-0.708-2.129-2.7-3.564-4.943-3.562h-0.693l2.662-2.677c0.208-0.209 0.207-0.546-0.002-0.754-0.040-0.040-0.087-0.074-0.138-0.099-2.006-1.006-4.431-0.613-6.017 0.976l-0.509 0.509c-0.166 0.167-0.32 0.345-0.462 0.533-0.14-0.188-0.293-0.366-0.458-0.533l-0.509-0.509c-1.584-1.587-4.008-1.981-6.013-0.976-0.263 0.132-0.37 0.452-0.239 0.715 0.025 0.051 0.059 0.097 0.099 0.138l2.665 2.677h-0.7c-2.243-0.002-4.235 1.433-4.943 3.562-0.093 0.279 0.057 0.581 0.337 0.674 0.054 0.018 0.112 0.027 0.169 0.027h3.745l-0.436 0.436c-1.588 1.584-1.981 4.008-0.977 6.014 0.077 0.153 0.222 0.26 0.391 0.288 0.029 0.005 0.057 0.007 0.086 0.007 0.141 0 0.276-0.056 0.376-0.155l4.616-4.588c-0.572 5.107-2.495 9.97-5.572 14.085-0.716-0.188-1.443-0.336-2.175-0.443l-0.333-0.034-0.107 1.061 0.311 0.030c0.533 0.076 1.063 0.184 1.589 0.306-0.107 0.134-0.213 0.27-0.324 0.401l0.817 0.684c4.096-4.87 6.538-10.915 6.972-17.263l0.613-0.61 0.459 0.457c-0.56 6.789-2.891 13.313-6.759 18.92l0.873 0.611c0.419-0.598 0.819-1.219 1.206-1.852 2.493 1.192 4.694 2.917 6.449 5.052l0.824-0.675c-1.037-1.261-2.226-2.39-3.539-3.361h22.338v-1.066h-23.917c-0.522-0.315-1.062-0.601-1.612-0.867zM16.711 13.607l-5.631-5.599c1.44-0.43 3-0.040 4.069 1.018l0.509 0.509c1.066 1.064 1.47 2.624 1.054 4.072zM18.907 7.28h-4.413c-1.028-0.489-2.187-0.628-3.301-0.394 0.776-1.091 2.031-1.738 3.369-1.738h0.719c1.507-0.002 2.895 0.814 3.626 2.132zM11.339 2.791l0.509-0.509c1.065-1.066 2.625-1.47 4.074-1.054l-3.159 3.178c-1.025 0.377-1.906 1.068-2.516 1.975-0.248-1.304 0.161-2.646 1.094-3.59h-0.002zM8.403 2.282l0.509 0.509c0.237 0.242 0.443 0.514 0.613 0.807-0.241 0.561-0.379 1.161-0.407 1.772-0.478-0.418-1.030-0.744-1.626-0.964l-3.16-3.178c1.448-0.416 3.008-0.012 4.072 1.054h-0.001zM4.969 5.148h0.72c1.339-0.001 2.596 0.646 3.372 1.737-1.113-0.233-2.272-0.094-3.3 0.395h-4.415c0.73-1.317 2.118-2.133 3.624-2.132h-0.002zM3.543 13.607c-0.416-1.448-0.012-3.007 1.054-4.072l0.509-0.509c0.767-0.765 1.807-1.193 2.89-1.189 0.4 0 0.797 0.057 1.181 0.169l-5.634 5.601z"></path>
</symbol>
<symbol id="icon-logo" viewBox="0 0 34 32">
<path stroke-linejoin="miter" fill="none" stroke-linecap="butt" stroke="white" stroke-width="0.5333" d="M31.733 16c0 8.689-7.044 15.733-15.733 15.733s-15.733-7.044-15.733-15.733c0-8.689 7.044-15.733 15.733-15.733s15.733 7.044 15.733 15.733z"></path>
<path fill="white" d="M33.711 5.619l-1.136-1.657-0.955-0.827-0.009-0.677-0.453-0.324-0.568 1.209-0.859-0.557-0.297 0.302 0.334 0.67-4.93 4.701-7.765 3.783-2.329 0.516-0.548 0.281-1.447 1.87-0.601 2.024-0.141 1.119 0.312 0.668 0.033-0.244 0.555-2.019-0.53 4.077-0.601 1.837-1.109 5.593h1.007l-0.304-0.506 0.529-2.672 1.997-3.989-0.367 1.499 1.561 5.668h1.061l-0.444-0.565-0.745-2.221-0.315-3.335 1.144-2.635 0.685-0.668 3.174 0.005 0.561 0.56-1.026 7.641 0.041 1.218h1.010l-0.372-0.56 0.139-2.909 1.55-5.326 0.19 0.001 3.401 8.793h1.021l-0.519-0.53-0.925-2.5-1.45-6.309 0.384-3.237-0.188-0.903 0.177-0.635 6.598-7.491 1.005-0.196 2.538 0.924 0.18-0.716-0.255-0.751z"></path>
</symbol>
<symbol id="icon-angle-left" viewBox="0 0 32 32" fill="none">
<path stroke-linejoin="miter" stroke-linecap="butt" stroke-miterlimit="10" stroke-width="4.5714" d="M24 29.714l-13.714-13.711 13.714-13.718"></path>
</symbol>
<symbol id="icon-burger" viewBox="0 0 32 32">
<path d="M2 6h28v6h-28zM2 14h28v6h-28zM2 22h28v6h-28z"></path>
</symbol>
<symbol id="icon-cross" viewBox="0 0 32 32">
<path d="M31.708 25.708c-0-0-0-0-0-0l-9.708-9.708 9.708-9.708c0-0 0-0 0-0 0.105-0.105 0.18-0.227 0.229-0.357 0.133-0.356 0.057-0.771-0.229-1.057l-4.586-4.586c-0.286-0.286-0.702-0.361-1.057-0.229-0.13 0.048-0.252 0.124-0.357 0.228 0 0-0 0-0 0l-9.708 9.708-9.708-9.708c-0-0-0-0-0-0-0.105-0.104-0.227-0.18-0.357-0.228-0.356-0.133-0.771-0.057-1.057 0.229l-4.586 4.586c-0.286 0.286-0.361 0.702-0.229 1.057 0.049 0.13 0.124 0.252 0.229 0.357 0 0 0 0 0 0l9.708 9.708-9.708 9.708c-0 0-0 0-0 0-0.104 0.105-0.18 0.227-0.229 0.357-0.133 0.355-0.057 0.771 0.229 1.057l4.586 4.586c0.286 0.286 0.702 0.361 1.057 0.229 0.13-0.049 0.252-0.124 0.357-0.229 0-0 0-0 0-0l9.708-9.708 9.708 9.708c0 0 0 0 0 0 0.105 0.105 0.227 0.18 0.357 0.229 0.356 0.133 0.771 0.057 1.057-0.229l4.586-4.586c0.286-0.286 0.362-0.702 0.229-1.057-0.049-0.13-0.124-0.252-0.229-0.357z"></path>
</symbol>
</defs>
</svg>
